<svg width="100" height="38" viewBox="0 0 100 38" fill="none" xmlns="http://www.w3.org/2000/svg">
<g id="logos/fidal-avocat">
<path id="logo" fill-rule="evenodd" clip-rule="evenodd" d="M68.8838 0.572021L58.775 22.0045H63.8444L65.4564 18.1481H72.8699L74.4819 22.0045H79.6669L69.5581 0.572021H68.8838ZM69.1771 9.27215L71.2858 14.3765H67.0363L69.1771 9.27215ZM0 22.0045V0.747889H13.5939V5.2717H4.97945V9.96926H12.3651V14.2897H4.97945V22.0045H0ZM26.5756 0.747889H21.594V22.0045H26.5756V0.747889ZM36.1021 0.756364V22.0045H40.8824C41.3919 22.0151 41.955 22.0193 42.5715 22.0193C44.7658 22.0193 46.6604 21.7439 48.2596 21.1909C49.8566 20.6399 51.171 19.8814 52.2007 18.9194C53.2304 17.9574 53.9947 16.8154 54.4956 15.4911C54.9966 14.1668 55.247 12.7323 55.247 11.1897C55.247 9.7044 54.988 8.32713 54.4678 7.06004C53.9476 5.79295 53.1576 4.69325 52.1001 3.75882C51.0404 2.82439 49.7024 2.09126 48.0861 1.5573C46.4677 1.02334 44.5624 0.756364 42.3681 0.756364H36.1021ZM46.3371 17.218C45.5001 17.5231 44.5025 17.6756 43.3486 17.6756V17.6735H41.0794V5.10219H43.0296C45.3203 5.10219 47.0586 5.63827 48.2424 6.71466C49.4241 7.79105 50.0171 9.28274 50.0171 11.1876C50.0171 12.1602 49.8887 13.0459 49.6275 13.8468C49.3685 14.6478 48.9639 15.3322 48.4158 15.9042C47.8678 16.4742 47.1742 16.9128 46.3371 17.218ZM86.4061 0.747889V22.0045H100V17.5104H91.3855V0.747889H86.4061ZM26.7083 37.8792L26.1517 36.5506H23.5957L23.0412 37.8792H21.2943L24.7795 30.4906H25.0128L28.498 37.8792H26.7083ZM24.8801 33.491L24.1437 35.2496H25.608L24.8801 33.491ZM33.2035 37.9385H33.0022L29.4678 30.55H31.4373L33.1243 34.508L34.8112 30.55H36.74L33.2035 37.9385ZM46.031 34.2199C46.031 34.7602 45.9389 35.2602 45.7527 35.72C45.5665 36.1798 45.3074 36.5782 44.9692 36.9151C44.6331 37.252 44.2306 37.5168 43.7618 37.7097C43.2929 37.9025 42.7727 37.9999 42.2011 37.9999C41.6296 37.9999 41.1094 37.9025 40.6448 37.7097C40.1803 37.5168 39.7842 37.252 39.4588 36.9151C39.1313 36.5782 38.8808 36.1798 38.7074 35.72C38.5319 35.2602 38.4441 34.7602 38.4441 34.2199C38.4441 33.6795 38.5361 33.1795 38.7224 32.7155C38.9065 32.2514 39.1677 31.8531 39.4995 31.5162C39.8335 31.1793 40.2359 30.9144 40.7069 30.7216C41.1779 30.5288 41.7002 30.4313 42.2718 30.4313C42.8434 30.4313 43.3615 30.5288 43.8217 30.7216C44.282 30.9144 44.6759 31.1793 45.0034 31.5162C45.331 31.8531 45.5814 32.2535 45.7613 32.7155C45.9411 33.1795 46.031 33.6795 46.031 34.2199ZM44.1921 34.2199C44.1921 33.8872 44.145 33.5821 44.0508 33.3045C43.9566 33.029 43.8239 32.7896 43.6526 32.5904C43.4813 32.3913 43.2758 32.2345 43.036 32.12C42.7963 32.0077 42.5287 31.9505 42.2333 31.9505C41.9443 31.9505 41.6767 32.0077 41.4347 32.12C41.1928 32.2345 40.9852 32.3891 40.8139 32.5904C40.6427 32.7896 40.5099 33.029 40.4157 33.3045C40.3215 33.5821 40.2744 33.8851 40.2744 34.2199C40.2744 34.5462 40.3215 34.8492 40.4157 35.1246C40.5099 35.4022 40.6427 35.6416 40.8139 35.845C40.9852 36.0485 41.1928 36.2074 41.4347 36.3197C41.6767 36.4341 41.9421 36.4892 42.2333 36.4892C42.5287 36.4892 42.7963 36.432 43.036 36.3197C43.2758 36.2074 43.4813 36.0485 43.6526 35.845C43.8239 35.6416 43.9566 35.4022 44.0508 35.1246C44.145 34.8492 44.1921 34.5462 44.1921 34.2199ZM54.9602 37.3198C54.6369 37.5338 54.2644 37.6991 53.8448 37.8198C53.4231 37.9406 53.0014 37.9999 52.5775 37.9999C51.9717 37.9999 51.4215 37.9046 50.927 37.716C50.4324 37.5253 50.0064 37.2626 49.6489 36.9257C49.2914 36.5888 49.0152 36.1883 48.8204 35.7264C48.6256 35.2624 48.5271 34.7623 48.5271 34.222C48.5271 33.6753 48.6256 33.171 48.8204 32.707C49.0152 32.2429 49.2914 31.8446 49.6489 31.5077C50.0064 31.1708 50.4324 30.908 50.927 30.7173C51.4215 30.5266 51.9717 30.4334 52.5775 30.4334C53.0078 30.4334 53.4167 30.4927 53.8042 30.6093C54.1916 30.7258 54.5534 30.8805 54.8895 31.0733L54.365 32.512C54.0889 32.3595 53.802 32.2387 53.5023 32.1518C53.2026 32.065 52.9008 32.0226 52.5989 32.0226C52.2564 32.0226 51.9438 32.0734 51.6655 32.173C51.3851 32.2726 51.1496 32.4188 50.9591 32.6074C50.7664 32.7981 50.6187 33.029 50.5138 33.3024C50.4089 33.5757 50.3575 33.883 50.3575 34.222C50.3575 34.561 50.4089 34.8661 50.5138 35.1373C50.6187 35.4064 50.7664 35.6374 50.9591 35.8281C51.1517 36.0188 51.3872 36.165 51.6655 36.2688C51.946 36.3726 52.2564 36.4235 52.5989 36.4235C52.9029 36.4235 53.2155 36.3769 53.5387 36.2837C53.862 36.1904 54.166 36.0569 54.4485 35.8832L54.9602 37.3198ZM62.545 37.8792L61.9884 36.5506H59.4323L58.8778 37.8792H57.1309L60.6161 30.4906H60.8495L64.3346 37.8792H62.545ZM60.7167 33.491L59.9803 35.2496H61.4446L60.7167 33.491ZM69.2306 32.1116V37.8792H67.5137V32.1116H65.2916V30.5521H71.4527V32.1116H69.2306ZM78.543 36.5697C78.65 36.2964 78.7036 36.0124 78.7036 35.72C78.7036 35.487 78.6757 35.2687 78.6201 35.0695C78.5623 34.8661 78.4638 34.6754 78.3268 34.4996C78.1876 34.3237 78.0035 34.1563 77.7702 33.9995C77.539 33.8427 77.25 33.6901 76.9074 33.5439C76.8037 33.4979 76.7066 33.4553 76.6161 33.4156C76.5066 33.3677 76.4068 33.3239 76.3166 33.2833C76.1517 33.2092 76.0147 33.1371 75.9077 33.063C75.8007 32.9909 75.7236 32.9104 75.6765 32.8235C75.6294 32.7366 75.6058 32.6349 75.6058 32.5142C75.6058 32.3616 75.6722 32.226 75.8071 32.1052C75.9419 31.9844 76.1667 31.9251 76.4836 31.9251C76.6184 31.9251 76.7576 31.9442 76.9032 31.9802C77.0487 32.0162 77.1922 32.0628 77.3377 32.1201C77.4833 32.1773 77.6225 32.2408 77.7573 32.3107C77.8922 32.3807 78.0142 32.4506 78.1213 32.5248L78.5558 31.0055C78.4488 30.9335 78.3161 30.8614 78.1619 30.7957C78.0078 30.7301 77.8387 30.6686 77.6567 30.6156C77.4747 30.5627 77.2842 30.5203 77.0851 30.4864C76.886 30.4525 76.6848 30.4355 76.4836 30.4355C76.0511 30.4355 75.6743 30.4949 75.3468 30.6156C75.0193 30.7343 74.7495 30.8932 74.5333 31.0903C74.3171 31.2852 74.1544 31.5098 74.0431 31.7641C73.9318 32.0183 73.8761 32.2768 73.8761 32.5438C73.8761 32.7642 73.9061 32.9761 73.966 33.1795C74.0259 33.3829 74.1244 33.5736 74.2636 33.7537C74.4027 33.9338 74.5847 34.1012 74.8095 34.258C75.0364 34.4148 75.3104 34.5589 75.6337 34.6924C75.9163 34.8068 76.1432 34.9085 76.3144 34.9975C76.4878 35.0865 76.6206 35.1755 76.719 35.2624C76.8175 35.3492 76.8818 35.434 76.9117 35.5166C76.9417 35.5993 76.9567 35.6882 76.9567 35.7815C76.9567 35.9616 76.8925 36.1141 76.764 36.237C76.6356 36.3599 76.4215 36.4214 76.1175 36.4214C75.7685 36.4214 75.411 36.3557 75.0471 36.2264C74.6832 36.0972 74.3513 35.9256 74.0474 35.7116L73.5721 37.252C73.7348 37.3579 73.9168 37.4575 74.118 37.5465C74.3214 37.6376 74.5312 37.716 74.7495 37.7817C74.9679 37.8474 75.1905 37.9004 75.4153 37.9406C75.6401 37.9809 75.8563 37.9999 76.0661 37.9999C76.5114 37.9999 76.8989 37.9364 77.2286 37.8092C77.5604 37.6821 77.8344 37.5126 78.0528 37.2986C78.2711 37.0867 78.436 36.843 78.543 36.5697Z" fill="#0F2238"/>
</g>
</svg>
